<?xml version="1.0" standalone="no"?>
<!DOCTYPE svg PUBLIC "-//W3C//DTD SVG 20010904//EN"
 "http://www.w3.org/TR/2001/REC-SVG-20010904/DTD/svg10.dtd">
<svg version="1.0" xmlns="http://www.w3.org/2000/svg"
 width="231" height="60" viewBox="0 0 231 60"
 preserveAspectRatio="xMidYMid meet">

<g transform="translate(0.000000,60.000000) scale(0.100000,-0.100000)"
fill="#5ad7b6" stroke="none">
<path d="M1194 504 c-18 -26 -44 -114 -44 -146 0 -10 -7 -18 -15 -18 -25 0
-74 -53 -87 -95 -8 -24 -20 -41 -31 -43 -16 -3 -17 2 -11 62 6 54 4 67 -9 72
-22 8 -55 -12 -78 -49 l-20 -32 7 43 c5 34 4 42 -8 42 -22 0 -35 -20 -43 -65
-4 -22 -14 -47 -22 -57 -19 -21 -59 -31 -81 -19 -15 9 -12 12 16 22 36 12 52
35 52 71 0 82 -120 47 -136 -40 -8 -42 -22 -64 -36 -56 -6 4 -7 33 -3 75 6 56
4 69 -7 69 -21 0 -38 -21 -38 -46 0 -12 -7 -27 -15 -34 -13 -11 -15 -7 -15 29
0 66 -49 65 -91 -2 l-20 -32 7 43 c5 34 4 42 -8 42 -9 0 -21 -7 -28 -15 -16
-19 -24 -145 -12 -164 16 -22 40 -5 52 37 7 21 20 49 31 63 l19 24 0 -25 c0
-32 17 -50 46 -50 15 0 24 -8 28 -25 8 -32 48 -43 79 -22 20 13 27 13 48 1 31
-17 67 -17 101 0 25 13 29 13 37 -1 14 -25 39 -8 51 35 7 21 20 49 31 63 l18
24 -2 -59 c-2 -70 13 -88 63 -69 22 8 38 8 59 0 24 -9 34 -7 55 7 24 15 28 15
42 1 20 -20 44 -19 73 4 23 18 24 18 42 0 23 -23 58 -24 84 -5 17 12 24 12 49
-1 35 -18 85 -12 124 15 l27 20 18 -24 c21 -29 56 -31 87 -6 23 18 24 18 42 0
21 -21 67 -24 93 -4 17 12 23 12 47 0 34 -18 66 -18 100 0 25 13 29 13 37 -1
14 -27 38 -7 56 46 20 60 45 87 45 48 0 -30 13 -41 40 -32 23 7 36 43 21 58
-6 6 -11 19 -11 29 0 45 -58 28 -91 -25 l-20 -32 7 43 c5 34 4 42 -8 42 -22 0
-35 -20 -43 -65 -4 -22 -14 -47 -22 -57 -19 -21 -59 -31 -81 -19 -15 9 -12 12
16 22 36 12 52 35 52 71 0 85 -122 46 -136 -43 -6 -34 -26 -59 -48 -59 -18 0
-36 37 -36 75 l0 44 42 3 c31 2 44 8 46 21 2 12 -3 17 -17 17 l-21 0 20 37
c22 42 25 74 10 104 -26 48 -88 -3 -111 -91 -7 -28 -19 -50 -26 -50 -17 0 -16
10 2 34 16 22 20 93 6 115 -12 19 -55 7 -74 -22 -9 -13 -22 -46 -30 -73 -10
-37 -19 -50 -35 -52 -28 -4 -29 -32 -2 -39 32 -8 27 -64 -8 -90 -38 -28 -68
-36 -89 -24 -16 9 -14 11 15 22 36 12 52 35 52 71 0 85 -122 46 -136 -43 -7
-39 -34 -66 -54 -54 -16 10 -12 26 32 112 65 129 63 236 -5 219 -45 -11 -88
-129 -99 -275 -2 -22 -11 -39 -25 -48 -19 -13 -23 -12 -32 5 -9 16 -4 35 25
96 40 84 56 184 34 211 -19 23 -48 18 -66 -11z m42 -70 c-3 -25 -14 -64 -25
-87 l-18 -42 4 50 c7 70 22 125 35 125 7 0 9 -15 4 -46z m134 11 c0 -38 -35
-141 -52 -151 -12 -8 -4 55 18 134 17 59 34 69 34 17z m300 -2 c0 -18 -35 -83
-45 -83 -6 0 3 41 16 78 10 26 29 29 29 5z m120 -3 c0 -12 -8 -35 -17 -53 -13
-25 -18 -28 -21 -14 -5 22 17 87 29 87 5 0 9 -9 9 -20z m-100 -173 c0 -31 -6
-49 -20 -62 -30 -27 -50 -5 -50 56 l0 49 35 0 c35 0 35 0 35 -43z m-910 8 c0
-15 -38 -40 -47 -31 -3 3 2 17 11 31 17 26 36 26 36 0z m700 0 c0 -15 -38 -40
-47 -31 -3 3 2 17 11 31 17 26 36 26 36 0z m440 0 c0 -15 -38 -40 -47 -31 -3
3 2 17 11 31 17 26 36 26 36 0z m-780 3 c0 -7 3 -22 6 -34 3 -13 -1 -28 -12
-38 -15 -15 -19 -16 -31 -3 -13 12 -12 19 1 51 15 35 36 49 36 24z"/>
<path d="M233 480 c-18 -4 -44 -15 -58 -24 -22 -15 -26 -23 -23 -59 2 -34 7
-42 23 -42 16 0 20 7 20 33 1 36 17 52 53 52 24 0 27 -13 16 -68 -4 -21 -13
-32 -27 -34 -28 -4 -34 -28 -8 -35 30 -8 28 -57 -4 -88 -30 -31 -36 -31 -73 0
-30 25 -42 24 -42 -5 0 -42 78 -72 130 -50 34 14 55 47 65 102 7 36 9 37 54
40 33 2 46 7 46 18 0 10 -13 16 -42 18 -41 3 -43 5 -43 35 0 75 5 79 84 75 59
-2 71 0 74 13 2 10 -6 19 -20 23 -31 8 -186 6 -225 -4z"/>
<path d="M622 421 c-20 -12 -10 -45 14 -49 25 -4 49 22 40 43 -6 16 -33 20
-54 6z"/>
</g>
</svg>
